<svg xmlns="http://www.w3.org/2000/svg" width="36" height="40"><g fill="none" fill-rule="evenodd"><circle cx="24.5" cy="28.5" r="10.5" fill="#FF6F61"/><path fill="#000" fill-rule="nonzero" d="M26.97 17.316v-7.57a.88.88 0 0 0-.24-.575L18.334.258A.84.84 0 0 0 17.732 0H4.42C1.963 0 0 2.026 0 4.51v25.444c0 2.485 1.963 4.477 4.42 4.477h10.508c1.987 3.335 5.6 5.569 9.715 5.569C30.895 40 36 34.865 36 28.537c.008-5.527-3.918-10.146-9.03-11.221m-8.413-14.39L24.19 8.92h-3.654c-1.089 0-1.98-.908-1.98-2.009zM4.42 32.764c-1.542 0-2.77-1.25-2.77-2.81V4.51c0-1.567 1.228-2.843 2.77-2.843h12.487v5.244c0 2.026 1.625 3.677 3.63 3.677h4.783v6.51c-.248-.008-.446-.033-.66-.033-2.879 0-5.526 1.118-7.522 2.868H6.664a.83.83 0 0 0-.825.834c0 .459.371.834.825.834h8.94c-.585.833-1.072 1.667-1.451 2.584h-7.49a.83.83 0 0 0-.824.834c0 .458.371.834.825.834h6.952a11.3 11.3 0 0 0-.313 2.684c0 1.5.289 2.985.808 4.235h-9.69zm20.232 5.577c-5.345 0-9.691-4.394-9.691-9.796s4.338-9.796 9.69-9.796c5.353 0 9.691 4.394 9.691 9.796s-4.346 9.796-9.69 9.796"/><path fill="#000" fill-rule="nonzero" d="M6.457 17.6h8.686c.471 0 .857-.36.857-.8s-.386-.8-.857-.8H6.457c-.471 0-.857.36-.857.8s.386.8.857.8m18.935 5.065a.82.82 0 0 0-.596-.265.82.82 0 0 0-.596.265l-4.781 5.208c-.31.33-.286.86.04 1.167a.825.825 0 0 0 1.167-.041l3.378-3.668v9.041c0 .456.368.828.816.828.45 0 .816-.372.816-.828v-9.041l3.354 3.668a.82.82 0 0 0 .596.265.82.82 0 0 0 .554-.224.833.833 0 0 0 .041-1.167l-4.79-5.208z"/></g></svg>