<svg xmlns="http://www.w3.org/2000/svg" width="40" height="40"><g fill="none" fill-rule="evenodd"><rect width="20" height="11" x="6" y="23" fill="#FF6F61" rx="2"/><path fill="#000" fill-rule="nonzero" d="M24.078 4.324H12.679c-.435 0-.787.297-.787.662v1.92c0 .365.352.662.787.662s.787-.297.787-.662V5.648h10.612c.434 0 .787-.296.787-.662 0-.365-.353-.662-.787-.662m.066 17.298H8.288c-1.59 0-2.883 1.324-2.883 2.953v7.066c0 1.629 1.294 2.954 2.883 2.954h15.856c1.59 0 2.883-1.325 2.883-2.954v-7.066c0-1.629-1.293-2.953-2.883-2.953m0 11.39H8.288c-.738 0-1.338-.615-1.338-1.37v-7.067c0-.756.6-1.371 1.338-1.371h15.856c.738 0 1.339.615 1.339 1.37v7.067c0 .756-.6 1.372-1.339 1.372zm5.371-20.039h-7.138c-.417 0-.755.242-.755.54s.338.541.755.541h7.138c.417 0 .755-.242.755-.54s-.338-.541-.755-.541m-10.214.158a.55.55 0 0 0-.382-.158.55.55 0 0 0-.382.158c-.1.1-.159.24-.159.383a.544.544 0 0 0 .541.54.55.55 0 0 0 .382-.158.546.546 0 0 0 0-.765"/><path fill="#000" fill-rule="nonzero" d="M21.902 28.108h-7.047c-.442 0-.8.242-.8.54 0 .3.358.541.8.541h7.047c.442 0 .8-.242.8-.54s-.358-.54-.8-.54zm-10.169.158a.55.55 0 0 0-.382-.158.55.55 0 0 0-.382.158.543.543 0 0 0 .382.923.542.542 0 0 0 .382-.923"/><path fill="#000" fill-rule="nonzero" d="M36.094 12.419h-.313V7.656h-.002a.78.78 0 0 0-.227-.552L28.677.229a.78.78 0 0 0-.553-.227L28.125 0H9.687a2.346 2.346 0 0 0-2.342 2.344v6.875H.78c-.43 0-.78.35-.78.781v26.094A3.91 3.91 0 0 0 3.906 40h31.719l.048-.001.112.001A4.22 4.22 0 0 0 40 35.785v-19.46a3.91 3.91 0 0 0-3.906-3.906m-7.188-9.752 4.208 4.208h-2.84a1.37 1.37 0 0 1-1.368-1.367v-2.84zm-25 35.77a2.346 2.346 0 0 1-2.344-2.343V10.78h9.662c.942 0 1.79.561 2.157 1.429l2.706 6.376a.78.78 0 0 0 .72.477H29.21c1.3 0 2.36 1.05 2.36 2.34v14.386a4.2 4.2 0 0 0 .943 2.649zM29.21 17.5H17.323l-2.503-5.9a3.9 3.9 0 0 0-3.596-2.381H8.906V2.344c0-.431.35-.781.781-.781h17.657v3.945c0 1.23.762 2.285 1.839 2.718v.993h-12.62a.782.782 0 1 0 0 1.562h13.401c.432 0 .782-.35.782-.781V8.437h3.473v24.22c0 .43-.35.78-.782.78h-.304V21.402c-.002-2.151-1.762-3.902-3.923-3.902m9.227 18.285a2.656 2.656 0 0 1-2.652 2.653c-1.46 0-2.65-1.19-2.652-2.65V35h.304a2.346 2.346 0 0 0 2.344-2.344V13.981h.313a2.346 2.346 0 0 1 2.343 2.344z"/></g></svg>